<svg width="455" height="407" viewBox="0 0 455 407" fill="none" xmlns="http://www.w3.org/2000/svg">
<g filter="url(#filter0_d_160_12)">
<path d="M355.44 225.235C355.353 225.649 355.281 226.064 355.196 226.479L354.162 226.131C354.592 225.827 355.009 225.524 355.44 225.235Z" fill="white"/>
</g>
<g filter="url(#filter1_d_160_12)">
<path d="M363.118 345.815C210.636 470.393 -33.5936 324.988 16.7059 132.482C16.8297 132.391 16.9474 132.283 17.0457 132.167C17.2193 131.967 17.354 131.743 17.4535 131.508C26.4 130.722 35.383 130.426 44.3405 130.626L51.1366 130.87L57.9121 131.354L59.6062 131.478C60.1717 131.523 60.7324 131.6 61.2967 131.656L64.6717 132.024L68.0455 132.391C69.1632 132.535 70.2858 132.712 71.4047 132.871L74.7579 133.36C75.878 133.514 76.9981 133.677 78.1061 133.896L84.7772 135.105C89.1923 136.059 93.6134 136.967 97.9726 138.141C106.697 140.406 115.322 143.049 123.713 146.283C157.374 158.942 187.948 179.003 212.451 204.433L214.752 206.809L219.178 211.717L220.282 212.947C220.643 213.361 220.995 213.789 221.346 214.208L225.576 219.274L229.618 224.477C234.899 231.505 239.757 238.729 244.223 246.372C245.455 248.286 246.74 250.234 247.996 252.164L249.895 255.051L251.904 257.836L255.938 263.407L260.207 268.806L262.352 271.505L264.602 274.103L269.116 279.314L273.837 284.338L276.206 286.849L278.666 289.259L283.598 294.095L288.723 298.742L291.281 301.05L293.944 303.27L299.253 307.712L304.738 311.951L307.471 314.071L310.291 316.085L315.951 320.117L321.768 323.944L324.677 325.843C325.657 326.458 326.656 327.037 327.655 327.652L333.628 331.241C335.644 332.385 337.695 333.479 339.742 334.606L342.809 336.281C343.827 336.828 344.878 337.34 345.929 337.853L352.2 340.979C354.322 341.953 356.459 342.893 358.595 343.851L361.786 345.285C362.224 345.457 362.68 345.645 363.118 345.815Z" fill="white"/>
</g>
<g filter="url(#filter2_d_160_12)">
<path d="M445 181.158C445 188.465 444.632 195.681 443.86 202.798L443.65 202.794C435.692 202.569 427.697 202.702 419.72 203.211C411.744 203.755 403.784 204.646 395.861 205.945C387.954 207.258 380.083 208.907 372.335 210.99C367.496 212.261 362.709 213.691 357.957 215.27C359.379 209.217 360.448 203.088 361.115 196.913C362.184 186.978 362.237 176.929 361.15 167.006C360.062 157.079 357.872 147.281 354.558 137.874C351.244 128.468 346.807 119.457 341.41 111.084C336.028 102.705 329.664 94.9676 322.564 87.9974C315.482 81.0284 307.645 74.8292 299.336 69.4176C282.718 58.5792 264.183 50.93 245.281 45.6708L244.966 45.5834L244.757 45.5881L243.708 45.6153C235.517 35.2964 224.231 27.4666 209.588 23.4967C336.955 -31.1561 444.597 47.9615 445 181.158Z" fill="white"/>
</g>
<g filter="url(#filter3_d_160_12)">
<path d="M348.866 168.347C349.359 177.434 348.828 186.56 347.368 195.535C345.941 204.159 343.668 212.645 340.671 220.886C340.584 221.106 340.247 221.932 339.985 222.579C328.267 227.511 316.885 233.353 306.03 240.03C299.14 244.296 292.428 248.863 285.981 253.779C281.231 257.364 276.624 261.153 272.155 265.096L271.519 264.413L269.376 261.904L265.102 256.903L261.055 251.73L259.034 249.136L257.149 246.482C255.898 244.704 254.635 242.961 253.383 241.156C248.536 233.527 243.111 226.056 237.341 218.955L232.931 213.686L228.325 208.578C227.943 208.154 227.565 207.72 227.176 207.302L225.976 206.07L223.58 203.597L221.188 201.136L218.706 198.752L216.22 196.371C215.805 195.973 215.396 195.57 214.973 195.184L213.691 194.036L208.549 189.458L203.251 185.054C202.808 184.688 202.373 184.318 201.925 183.96L200.563 182.904L197.837 180.799L195.107 178.702L189.508 174.674C189.041 174.342 188.581 174.001 188.107 173.675L186.671 172.717L180.932 168.894L175.07 165.263C174.638 165.005 174.203 164.746 173.766 164.49C227.243 150.719 274.076 94.8474 245.932 49.5974C254.551 52.5543 262.901 55.9568 270.967 59.9434C279.634 64.2149 287.917 69.1379 295.652 74.7501C303.388 80.3552 310.541 86.646 316.902 93.5776C323.281 100.499 328.849 108.058 333.448 116.101C338.062 124.139 341.694 132.655 344.267 141.442C346.855 150.223 348.37 159.267 348.866 168.347Z" fill="white"/>
</g>
<g filter="url(#filter4_d_160_12)">
<path d="M443.722 205.305C437.66 256.168 413.167 301.513 376.92 334.853L371.526 332.916C370.486 332.538 369.452 332.178 368.415 331.783L365.358 330.531C363.32 329.708 361.28 328.885 359.244 328.027L353.234 325.286C352.233 324.82 351.214 324.375 350.229 323.895L347.278 322.403C345.31 321.391 343.324 320.413 341.375 319.401L335.593 316.177C334.628 315.629 333.661 315.114 332.711 314.549L329.881 312.815L324.226 309.368L318.709 305.698L315.95 303.88L313.262 301.942L307.885 298.067L302.685 293.986L300.066 291.944L297.554 289.799L292.494 285.529L287.627 281.053L285.184 278.823L282.838 276.491L282.516 276.165C286.481 272.101 290.614 268.156 294.901 264.383C300.611 259.306 306.621 254.556 312.84 250.029C325.298 241.055 338.703 233.241 352.848 226.783C359.894 223.556 367.151 220.658 374.529 218.149C381.927 215.594 389.447 213.464 397.073 211.636C404.716 209.831 412.464 208.408 420.265 207.332C427.716 206.334 435.219 205.669 442.774 205.341C442.774 205.341 443.722 205.301 443.722 205.305Z" fill="white"/>
</g>
<defs>
<filter id="filter0_d_160_12" x="344.162" y="219.235" width="21.2773" height="21.2437" filterUnits="userSpaceOnUse" color-interpolation-filters="sRGB">
<feFlood flood-opacity="0" result="BackgroundImageFix"/>
<feColorMatrix in="SourceAlpha" type="matrix" values="0 0 0 0 0 0 0 0 0 0 0 0 0 0 0 0 0 0 127 0" result="hardAlpha"/>
<feOffset dy="4"/>
<feGaussianBlur stdDeviation="5"/>
<feComposite in2="hardAlpha" operator="out"/>
<feColorMatrix type="matrix" values="0 0 0 0 0 0 0 0 0 0 0 0 0 0 0 0 0 0 0.9 0"/>
<feBlend mode="normal" in2="BackgroundImageFix" result="effect1_dropShadow_160_12"/>
<feBlend mode="normal" in="SourceGraphic" in2="effect1_dropShadow_160_12" result="shape"/>
</filter>
<filter id="filter1_d_160_12" x="0" y="124.565" width="373.118" height="281.587" filterUnits="userSpaceOnUse" color-interpolation-filters="sRGB">
<feFlood flood-opacity="0" result="BackgroundImageFix"/>
<feColorMatrix in="SourceAlpha" type="matrix" values="0 0 0 0 0 0 0 0 0 0 0 0 0 0 0 0 0 0 127 0" result="hardAlpha"/>
<feOffset dy="4"/>
<feGaussianBlur stdDeviation="5"/>
<feComposite in2="hardAlpha" operator="out"/>
<feColorMatrix type="matrix" values="0 0 0 0 0 0 0 0 0 0 0 0 0 0 0 0 0 0 0.9 0"/>
<feBlend mode="normal" in2="BackgroundImageFix" result="effect1_dropShadow_160_12"/>
<feBlend mode="normal" in="SourceGraphic" in2="effect1_dropShadow_160_12" result="shape"/>
</filter>
<filter id="filter2_d_160_12" x="199.588" y="0" width="255.412" height="229.27" filterUnits="userSpaceOnUse" color-interpolation-filters="sRGB">
<feFlood flood-opacity="0" result="BackgroundImageFix"/>
<feColorMatrix in="SourceAlpha" type="matrix" values="0 0 0 0 0 0 0 0 0 0 0 0 0 0 0 0 0 0 127 0" result="hardAlpha"/>
<feOffset dy="4"/>
<feGaussianBlur stdDeviation="5"/>
<feComposite in2="hardAlpha" operator="out"/>
<feColorMatrix type="matrix" values="0 0 0 0 0 0 0 0 0 0 0 0 0 0 0 0 0 0 0.9 0"/>
<feBlend mode="normal" in2="BackgroundImageFix" result="effect1_dropShadow_160_12"/>
<feBlend mode="normal" in="SourceGraphic" in2="effect1_dropShadow_160_12" result="shape"/>
</filter>
<filter id="filter3_d_160_12" x="163.766" y="43.5974" width="195.279" height="235.498" filterUnits="userSpaceOnUse" color-interpolation-filters="sRGB">
<feFlood flood-opacity="0" result="BackgroundImageFix"/>
<feColorMatrix in="SourceAlpha" type="matrix" values="0 0 0 0 0 0 0 0 0 0 0 0 0 0 0 0 0 0 127 0" result="hardAlpha"/>
<feOffset dy="4"/>
<feGaussianBlur stdDeviation="5"/>
<feComposite in2="hardAlpha" operator="out"/>
<feColorMatrix type="matrix" values="0 0 0 0 0 0 0 0 0 0 0 0 0 0 0 0 0 0 0.9 0"/>
<feBlend mode="normal" in2="BackgroundImageFix" result="effect1_dropShadow_160_12"/>
<feBlend mode="normal" in="SourceGraphic" in2="effect1_dropShadow_160_12" result="shape"/>
</filter>
<filter id="filter4_d_160_12" x="272.516" y="199.305" width="181.206" height="149.548" filterUnits="userSpaceOnUse" color-interpolation-filters="sRGB">
<feFlood flood-opacity="0" result="BackgroundImageFix"/>
<feColorMatrix in="SourceAlpha" type="matrix" values="0 0 0 0 0 0 0 0 0 0 0 0 0 0 0 0 0 0 127 0" result="hardAlpha"/>
<feOffset dy="4"/>
<feGaussianBlur stdDeviation="5"/>
<feComposite in2="hardAlpha" operator="out"/>
<feColorMatrix type="matrix" values="0 0 0 0 0 0 0 0 0 0 0 0 0 0 0 0 0 0 0.9 0"/>
<feBlend mode="normal" in2="BackgroundImageFix" result="effect1_dropShadow_160_12"/>
<feBlend mode="normal" in="SourceGraphic" in2="effect1_dropShadow_160_12" result="shape"/>
</filter>
</defs>
</svg>
